<svg xmlns="http://www.w3.org/2000/svg" version="1.1" xmlns:xlink="http://www.w3.org/1999/xlink" xmlns:svgjs="http://svgjs.dev/svgjs" width="1000" height="999" viewBox="0 0 1000 999"><g transform="matrix(1,0,0,1,-0.215743440233382,-0.21552769679306039)"><svg viewBox="0 0 343 343" data-background-color="#1f242d" preserveAspectRatio="xMidYMid meet" height="999" width="1000" xmlns="http://www.w3.org/2000/svg" xmlns:xlink="http://www.w3.org/1999/xlink"><g id="tight-bounds" transform="matrix(1,0,0,1,0.0740000000000407,0.07400000000001228)"><svg viewBox="0 0 342.85155851775386 342.85155851775386" height="342.85155851775386" width="342.85155851775386"><g><svg></svg></g><g><svg viewBox="0 0 342.85155851775386 342.85155851775386" height="342.85155851775386" width="342.85155851775386"><g><path d="M0 171.426c0-94.676 76.75-171.426 171.426-171.426 94.676 0 171.426 76.75 171.426 171.426 0 94.676-76.75 171.426-171.426 171.426-94.676 0-171.426-76.75-171.426-171.426zM171.426 340.137c93.177 0 168.711-75.534 168.711-168.711 0-93.177-75.534-168.711-168.711-168.711-93.177 0-168.711 75.534-168.711 168.711 0 93.177 75.534 168.711 168.711 168.711z" data-fill-palette-color="tertiary" fill="#20cbd0" stroke="transparent"></path><ellipse rx="164.56874808852186" ry="164.56874808852186" cx="171.42577925887693" cy="171.42577925887693" fill="#20cbd0" stroke="transparent" stroke-width="0" fill-opacity="1" data-fill-palette-color="tertiary"></ellipse></g><g transform="matrix(1,0,0,1,64.84655864529837,101.39705448996122)"><svg viewBox="0 0 213.1584412271571 140.05744953783142" height="140.05744953783142" width="213.1584412271571"><g><svg viewBox="0 0 213.1584412271571 140.05744953783142" height="140.05744953783142" width="213.1584412271571"><g><svg viewBox="0 0 213.1584412271571 140.05744953783142" height="140.05744953783142" width="213.1584412271571"><g transform="matrix(1,0,0,1,0,84.242728152758)"><svg viewBox="0 0 213.1584412271571 55.8147213850734" height="55.8147213850734" width="213.1584412271571"><g id="textblocktransform"><svg viewBox="0 0 213.1584412271571 55.8147213850734" height="55.8147213850734" width="213.1584412271571" id="textblock"><g><svg viewBox="0 0 213.1584412271571 30.10379368756912" height="30.10379368756912" width="213.1584412271571"><g transform="matrix(1,0,0,1,0,0)"><svg width="213.1584412271571" viewBox="4.050000190734863 -40.45000076293945 289.2300109863281 40.85000228881836" height="30.10379368756912" data-palette-color="#323946"><path d="M25.5 0.05L7.2 0.05Q5.35 0.05 4.7-0.9 4.05-1.85 4.05-3L4.05-3 4.05-36.7Q4.05-37.85 4.7-38.78 5.35-39.7 7.2-39.7L7.2-39.7 24.6-39.7Q26.45-39.7 26.55-37.2L26.55-37.2Q26.65-34.65 24.6-34.65L24.6-34.65 9.95-34.65 9.95-5 25.5-5Q27.35-5 27.4-2.55L27.4-2.55Q27.5 0.05 25.5 0.05L25.5 0.05ZM22.75-20.65L22.75-20.65Q22.75-18.9 21.53-17.7 20.3-16.5 18.55-16.5L18.55-16.5Q16.85-16.5 15.65-17.7 14.45-18.9 14.45-20.65L14.45-20.65Q14.45-22.4 15.65-23.6 16.85-24.8 18.55-24.8L18.55-24.8Q20.3-24.8 21.53-23.6 22.75-22.4 22.75-20.65ZM47.85-1.95L47.85-21.75Q47.85-22.4 47.65-23.03 47.45-23.65 47.15-24.2L47.15-24.2Q46.5-25.4 44.45-25.4L44.45-25.4 41.25-25.4Q39.2-25.4 38.5-24.2L38.5-24.2Q37.9-23.05 37.9-21.75L37.9-21.75 37.9-1.95Q37.9 0.4 35.15 0.4L35.15 0.4Q32.3 0.4 32.3-1.95L32.3-1.95 32.3-22.2Q32.3-26.3 35-28.2L35-28.2Q37.75-30.1 40.35-30.1L40.35-30.1 45.4-30.1Q46.55-30.1 47.95-29.65 49.35-29.2 50.65-28.25L50.65-28.25Q51.9-29.2 53.27-29.65 54.65-30.1 55.9-30.1L55.9-30.1 60.9-30.1Q63.55-30.1 66.2-28.2L66.2-28.2Q68.95-26.35 68.95-22.2L68.95-22.2 68.95-1.95Q68.95 0.4 66.15 0.4L66.15 0.4Q63.35 0.4 63.35-1.95L63.35-1.95 63.35-21.75Q63.35-22.4 63.2-23.05 63.05-23.7 62.65-24.25L62.65-24.25 62.7-24.2Q62.3-24.85 61.7-25.13 61.1-25.4 59.95-25.4L59.95-25.4 56.8-25.4Q54.7-25.4 54.05-24.2L54.05-24.2Q53.4-23.1 53.4-21.75L53.4-21.75 53.4-1.95Q53.4 0.4 50.65 0.4L50.65 0.4Q47.85 0.4 47.85-1.95L47.85-1.95ZM83.95-17.5L91.3-17.5Q92.55-17.5 93.97-16.93 95.4-16.35 96.65-15.5L96.65-15.5 96.59-15.5Q97.9-14.55 98.59-13.05 99.3-11.55 99.3-9.45L99.3-9.45 99.3-7.95Q99.3-3.85 96.59-1.9L96.59-1.9Q95.3-0.9 93.95-0.45 92.59 0 91.3 0L91.3 0 82.8 0Q81.5 0 80.15-0.45 78.8-0.9 77.5-1.9L77.5-1.9Q74.8-3.8 74.8-7.95L74.8-7.95 74.8-8.55Q74.8-10.7 77.55-10.65L77.55-10.65Q80.34-10.65 80.34-8.55L80.34-8.55 80.34-8Q80.34-6.8 81.09-5.75 81.84-4.7 83.75-4.7L83.75-4.7 90.34-4.7Q92.25-4.7 93-5.75 93.75-6.8 93.75-8L93.75-8 93.75-9.4Q93.75-10.05 93.57-10.65 93.4-11.25 93-11.73 92.59-12.2 91.95-12.5 91.3-12.8 90.34-12.8L90.34-12.8 83.05-12.8Q80.5-12.8 77.7-14.6L77.7-14.6Q75.05-16.3 75.05-20.45L75.05-20.45 75.05-22.15Q75.05-24.15 75.75-25.68 76.45-27.2 77.75-28.15L77.75-28.15 77.7-28.15Q78.95-29 80.34-29.55 81.75-30.1 83.05-30.1L83.05-30.1 91.05-30.1Q92.34-30.1 93.72-29.55 95.09-29 96.4-28.15L96.4-28.15 96.34-28.15Q97.65-27.2 98.34-25.68 99.05-24.15 99.05-22.15L99.05-22.15 99.05-21.7Q99.05-20.65 98.34-20.18 97.65-19.7 96.3-19.65L96.3-19.65Q93.55-19.6 93.55-21.7L93.55-21.7 93.55-22.1Q93.55-23.35 92.77-24.38 92-25.4 90.15-25.4L90.15-25.4 83.95-25.4Q82.09-25.4 81.32-24.38 80.55-23.35 80.55-22.1L80.55-22.1 80.55-20.9Q80.55-19.6 81.32-18.55 82.09-17.5 83.95-17.5L83.95-17.5ZM113.79-30.1L121.79-30.1Q123.09-30.1 124.47-29.55 125.84-29 127.14-28.15L127.14-28.15 127.09-28.15Q128.39-27.2 129.09-25.68 129.79-24.15 129.79-22.15L129.79-22.15 129.79-7.95Q129.79-3.85 127.09-1.9L127.09-1.9Q124.44 0 121.79 0L121.79 0 113.79 0Q112.49 0 111.14-0.45 109.79-0.9 108.49-1.9L108.49-1.9Q105.79-3.8 105.79-7.95L105.79-7.95 105.79-22.15Q105.79-24.15 106.49-25.68 107.19-27.2 108.49-28.15L108.49-28.15 108.44-28.15Q109.69-29 111.09-29.55 112.49-30.1 113.79-30.1L113.79-30.1ZM114.69-4.7L120.89-4.7Q122.74-4.7 123.52-5.75 124.29-6.8 124.29-8L124.29-8 124.29-22.1Q124.29-23.35 123.52-24.38 122.74-25.4 120.89-25.4L120.89-25.4 114.69-25.4Q112.84-25.4 112.07-24.38 111.29-23.35 111.29-22.1L111.29-22.1 111.29-8Q111.29-6.8 112.07-5.75 112.84-4.7 114.69-4.7L114.69-4.7ZM141.59-21.75L141.59-2.1Q141.59 0.3 138.84 0.3L138.84 0.3Q136.09 0.3 136.09-2.1L136.09-2.1 136.09-22.2Q136.09-24.25 136.74-25.75 137.39-27.25 138.79-28.2L138.79-28.2Q141.44-30.1 144.09-30.1L144.09-30.1 152.14-30.1Q154.69-30.1 157.44-28.2L157.44-28.2Q160.14-26.3 160.14-22.2L160.14-22.2 160.14-2.1Q160.14 0.3 157.39 0.3L157.39 0.3Q154.64 0.3 154.64-2.1L154.64-2.1 154.64-21.75Q154.64-23.05 153.84-24.25L153.84-24.25 153.89-24.2Q153.24-25.4 151.24-25.4L151.24-25.4 144.99-25.4Q142.94-25.4 142.29-24.2L142.29-24.2Q141.59-23.15 141.59-21.75L141.59-21.75ZM191.34-22.85L200.99-22.85Q202.29-22.85 203.69-22.3 205.09-21.75 206.39-20.85L206.39-20.85 206.34-20.85Q207.64-19.95 208.34-18.4 209.04-16.85 209.04-14.85L209.04-14.85 209.04-8Q209.04-3.95 206.34-1.95L206.34-1.95Q205.04-1 203.66-0.48 202.29 0.05 200.99 0.05L200.99 0.05 190.09 0.05Q188.79 0.05 187.41-0.48 186.04-1 184.74-1.95L184.74-1.95Q182.04-3.95 182.04-8L182.04-8 182.04-11.3Q182.04-13.65 184.99-13.65L184.99-13.65Q187.99-13.65 187.99-11.3L187.99-11.3 187.99-8.4Q187.99-7.1 188.74-6.05 189.49-5 191.34-5L191.34-5 199.74-5Q201.59-5 202.34-6.05 203.09-7.1 203.09-8.4L203.09-8.4 203.09-14.45Q203.09-15.7 202.34-16.78 201.59-17.85 199.74-17.85L199.74-17.85 190.09-17.85Q187.49-17.85 184.74-19.75L184.74-19.75Q182.04-21.85 182.04-25.8L182.04-25.8 182.04-31.75Q182.04-33.75 182.74-35.27 183.44-36.8 184.74-37.75L184.74-37.75 184.69-37.75Q185.99-38.6 187.39-39.15 188.79-39.7 190.09-39.7L190.09-39.7 200.99-39.7Q202.29-39.7 203.69-39.15 205.09-38.6 206.39-37.75L206.39-37.75 206.34-37.75Q207.64-36.8 208.34-35.27 209.04-33.75 209.04-31.75L209.04-31.75 209.04-28.8Q209.04-26.45 206.04-26.45L206.04-26.45Q203.09-26.45 203.09-28.8L203.09-28.8 203.09-31.3Q203.09-32.55 202.34-33.6 201.59-34.65 199.74-34.65L199.74-34.65 191.34-34.65Q189.49-34.65 188.74-33.6 187.99-32.55 187.99-31.3L187.99-31.3 187.99-26.2Q187.99-24.9 188.74-23.88 189.49-22.85 191.34-22.85L191.34-22.85ZM222.08-27.9L222.08-2.1Q222.08 0.3 219.33 0.3L219.33 0.3Q216.53 0.3 216.53-2.1L216.53-2.1 216.53-27.9Q216.53-30.3 219.33-30.3L219.33-30.3Q222.08-30.3 222.08-27.9L222.08-27.9ZM223.13-36.6L223.13-36.6Q223.13-35 222.03-33.9 220.93-32.8 219.33-32.8L219.33-32.8Q217.73-32.8 216.61-33.9 215.48-35 215.48-36.6L215.48-36.6Q215.48-38.25 216.61-39.35 217.73-40.45 219.33-40.45L219.33-40.45Q220.93-40.45 222.03-39.35 223.13-38.25 223.13-36.6ZM234.73-37.8L234.73-1.95Q234.73 0.4 231.98 0.4L231.98 0.4Q229.18 0.4 229.18-1.95L229.18-1.95 229.18-37.8Q229.18-40.15 231.98-40.15L231.98-40.15Q234.73-40.15 234.73-37.8L234.73-37.8ZM252.38 0.3L251.83 0.3Q251.73 0.3 251.58 0.28 251.43 0.25 251.28 0.25L251.28 0.25Q251.03 0.25 250.58 0.25L250.58 0.25Q250.13 0.25 249.73 0.2L249.73 0.2Q248.88 0.15 248.28-0.28 247.68-0.7 247.43-1.3L247.43-1.3 239.03-27.1Q238.78-28.15 239.3-28.98 239.83-29.8 240.98-30.2L240.98-30.2Q241.33-30.3 241.68-30.35 242.03-30.4 242.28-30.4L242.28-30.4Q243.83-30.4 244.43-28.7L244.43-28.7 248.08-17.35 251.93-5.45 259.43-28.7Q259.98-30.45 261.43-30.45L261.43-30.45Q261.98-30.45 262.83-30.2L262.83-30.2Q264.13-29.85 264.63-29.03 265.13-28.2 264.78-27.1L264.78-27.1 256.43-1.3Q255.98 0.1 254.08 0.2L254.08 0.2Q253.98 0.2 253.85 0.23 253.73 0.25 253.63 0.25L253.63 0.25Q253.23 0.3 252.93 0.3L252.93 0.3Q252.63 0.3 252.38 0.3L252.38 0.3ZM283.32 0L276.78 0Q275.23 0 273.82-0.43 272.43-0.85 271.13-1.65L271.13-1.65 271.13-1.6Q268.68-3.15 268.68-7.3L268.68-7.3 268.68-9.75Q268.68-11.8 269.4-13.33 270.13-14.85 271.43-15.75L271.43-15.75 271.38-15.75Q272.63-16.6 274.03-17.03 275.43-17.45 276.73-17.45L276.73-17.45 287.78-17.45 287.78-22.1Q287.78-23.35 287-24.38 286.23-25.4 284.38-25.4L284.38-25.4 278.53-25.4Q276.63-25.4 275.9-24.48 275.18-23.55 275.18-22.3L275.18-22.3 275.18-21.9Q275.18-19.3 272.38-19.3L272.38-19.3Q269.57-19.3 269.57-21.9L269.57-21.9 269.57-22.35Q269.57-24.4 270.3-25.8 271.03-27.2 272.28-28.15L272.28-28.15 272.23-28.15Q273.53-29 274.95-29.55 276.38-30.1 277.68-30.1L277.68-30.1 285.28-30.1Q286.53-30.1 287.95-29.55 289.38-29 290.63-28.15L290.63-28.15 290.57-28.15Q291.88-27.2 292.57-25.68 293.28-24.15 293.28-22.15L293.28-22.15 293.28-2.1Q293.28 0.3 290.53 0.3L290.53 0.3Q289.98 0.3 289.5 0.25 289.03 0.2 288.65-0.03 288.28-0.25 288.05-0.68 287.82-1.1 287.82-1.8L287.82-1.8 287.78-12.75 277.68-12.75Q276.57-12.75 275.98-12.5 275.38-12.25 275.03-11.7L275.03-11.7Q274.63-10.85 274.45-10.38 274.28-9.9 274.28-9.3L274.28-9.3 274.28-7.35Q274.28-6.05 275.05-5.38 275.82-4.7 277.73-4.7L277.73-4.7 283.32-4.7Q285.18-4.7 285.18-2.35L285.18-2.35Q285.18-1.35 284.73-0.68 284.28 0 283.32 0L283.32 0Z" opacity="1" transform="matrix(1,0,0,1,0,0)" fill="#323946" class="wordmark-text-0" data-fill-palette-color="quaternary" id="text-0"></path></svg></g></svg></g><g transform="matrix(1,0,0,1,0,37.210576886155685)"><svg viewBox="0 0 213.1584412271571 18.604144498917716" height="18.604144498917716" width="213.1584412271571"><g transform="matrix(1,0,0,1,0,0)"><svg width="213.1584412271571" viewBox="5.760000228881836 -41.849998474121094 606.72998046875 52.959999084472656" height="18.604144498917716" data-palette-color="#323946"><path d="M5.76 0L5.76-37.13Q5.76-37.13 9.42-37.4L9.42-37.4Q14.92-37.84 18.19-37.84 21.46-37.84 23.41-37.59 25.37-37.33 26.84-36.71 28.32-36.08 29.36-35.01 30.4-33.94 31.05-32.28L31.05-32.28Q32.3-29.17 32.3-23.05L32.3-23.05 32.3-19.26Q32.3-12.01 31.23-8.25L31.23-8.25Q29.98-3.91 26.76-2L26.76-2Q23.44 0 17.02 0L17.02 0 5.76 0ZM26.49-31.42Q25.61-32.81 23.95-33.52 22.29-34.23 18.85-34.23 15.41-34.23 9.91-33.81L9.91-33.81 9.91-3.49 17.68-3.49Q22.22-3.49 24.41-4.98L24.41-4.98Q26.56-6.42 27.29-9.94L27.29-9.94Q27.93-12.82 27.93-19.26L27.93-19.26 27.93-23.07Q27.93-29.15 26.49-31.42L26.49-31.42ZM107.41-5.03L108.6-1.54Q103.55 0.49 97.44 0.49L97.44 0.49Q93.9 0.49 91.44-0.24L91.44-0.24Q87.51-1.37 86.21-4.88L86.21-4.88Q85.02-8.18 85.02-14.65L85.02-14.65 85.02-15.89Q85.02-23.63 88.24-26.76L88.24-26.76Q91.15-29.54 97.93-29.54L97.93-29.54Q104.55-29.54 106.97-26.27L106.97-26.27Q108.14-24.68 108.52-22.42 108.89-20.17 108.89-18.12L108.89-18.12Q108.89-14.92 108.75-13.16L108.75-13.16Q105.31-13.01 102.57-13.01L102.57-13.01Q102.57-13.01 98.64-13.01L98.64-13.01Q92.49-13.01 89.17-13.55L89.17-13.55Q89.17-7.93 90.58-5.71L90.58-5.71Q92.32-3 97.49-3 102.67-3 107.41-5.03L107.41-5.03ZM89.17-16.41L104.77-16.41 104.77-18.75Q104.77-22.58 103.28-24.22L103.28-24.22Q101.62-26.05 97.54-26.05L97.54-26.05Q92.66-26.05 90.88-23.93L90.88-23.93Q89.17-21.9 89.17-16.41L89.17-16.41ZM168.62 0L158.66-29.05 163.03-29.05 170.65-5.35 171.38-2.93 172.06-5.35 179.34-29.05 183.76-29.05 173.94 0 168.62 0ZM255.74-5.03L256.93-1.54Q251.88 0.49 245.77 0.49L245.77 0.49Q242.23 0.49 239.77-0.24L239.77-0.24Q235.84-1.37 234.54-4.88L234.54-4.88Q233.35-8.18 233.35-14.65L233.35-14.65 233.35-15.89Q233.35-23.63 236.57-26.76L236.57-26.76Q239.48-29.54 246.26-29.54L246.26-29.54Q252.88-29.54 255.3-26.27L255.3-26.27Q256.47-24.68 256.85-22.42 257.22-20.17 257.22-18.12L257.22-18.12Q257.22-14.92 257.08-13.16L257.08-13.16Q253.64-13.01 250.9-13.01L250.9-13.01Q250.9-13.01 246.97-13.01L246.97-13.01Q240.82-13.01 237.5-13.55L237.5-13.55Q237.5-7.93 238.91-5.71L238.91-5.71Q240.65-3 245.82-3 251-3 255.74-5.03L255.74-5.03ZM237.5-16.41L253.1-16.41 253.1-18.75Q253.1-22.58 251.61-24.22L251.61-24.22Q249.95-26.05 245.87-26.05L245.87-26.05Q240.99-26.05 239.21-23.93L239.21-23.93Q237.5-21.9 237.5-16.41L237.5-16.41ZM311.36 0L311.31-41.5 315.34-41.85 315.34 0 311.36 0ZM369.2-14.45L369.2-14.45Q369.2-20 369.76-22.19 370.33-24.39 371.14-25.67 371.96-26.95 373.35-27.81L373.35-27.81Q376.14-29.54 381.58-29.54L381.58-29.54Q389.44-29.54 391.69-25.66L391.69-25.66Q393.03-23.32 393.23-19.04L393.23-19.04Q393.3-17.02 393.3-14.58 393.3-12.13 393.14-10.02 392.98-7.91 392.52-6.23 392.05-4.54 391.22-3.28 390.39-2.03 389.03-1.17L389.03-1.17Q386.34 0.49 381.19 0.49L381.19 0.49Q373.48 0.49 371.06-3.32L371.06-3.32Q369.57-5.69 369.33-9.96L369.33-9.96Q369.2-12.01 369.2-14.45ZM375.84-4.27Q376.72-3.61 378.05-3.28 379.38-2.95 381.69-2.95 384-2.95 385.57-3.61 387.15-4.27 387.94-5.73 388.73-7.18 388.94-9.5 389.15-11.82 389.15-14.89 389.15-17.97 388.97-20.02 388.78-22.07 388.05-23.41L388.05-23.41Q386.59-26.05 381.53-26.05L381.53-26.05Q376.19-26.05 374.57-23.41L374.57-23.41Q373.77-22.07 373.55-20 373.33-17.92 373.33-15.48 373.33-13.04 373.39-11.34 373.45-9.64 373.71-8.29 373.96-6.93 374.46-5.93 374.96-4.93 375.84-4.27ZM450.19-1.73L450.19-1.73 450.19 11.11 446.14 11.11 446.14-29.05 449.44-29.05 449.9-26.05Q452.76-28.2 457.35-29.2L457.35-29.2Q459.01-29.54 460.96-29.54 462.91-29.54 464.41-29.03 465.91-28.52 466.89-27.6 467.87-26.68 468.4-25.42 468.94-24.15 469.21-22.66L469.21-22.66Q469.55-20.61 469.55-16.11L469.55-16.11 469.55-15.55Q469.55-9.84 469.16-7.64 468.77-5.44 468.14-4.02 467.5-2.59 466.38-1.59L466.38-1.59Q464.06 0.49 459.2 0.49 454.34 0.49 450.19-1.73ZM450.19-22.92L450.19-5.08Q454.34-3.17 458.91-3.17L458.91-3.17Q461.89-3.17 463.25-4.27L463.25-4.27Q465.11-5.79 465.33-11.33L465.33-11.33Q465.4-13.16 465.4-15.53L465.4-15.53 465.4-16.06Q465.4-21.68 464.43-23.58L464.43-23.58Q463.33-25.76 459.88-25.76L459.88-25.76 459.52-25.76Q455.93-25.76 452.07-23.97L452.07-23.97Q450.95-23.46 450.19-22.92L450.19-22.92ZM544.1-5.03L545.29-1.54Q540.24 0.49 534.14 0.49L534.14 0.49Q530.6 0.49 528.13-0.24L528.13-0.24Q524.2-1.37 522.9-4.88L522.9-4.88Q521.71-8.18 521.71-14.65L521.71-14.65 521.71-15.89Q521.71-23.63 524.93-26.76L524.93-26.76Q527.84-29.54 534.62-29.54L534.62-29.54Q541.24-29.54 543.66-26.27L543.66-26.27Q544.83-24.68 545.21-22.42 545.59-20.17 545.59-18.12L545.59-18.12Q545.59-14.92 545.44-13.16L545.44-13.16Q542-13.01 539.26-13.01L539.26-13.01Q539.26-13.01 535.33-13.01L535.33-13.01Q529.18-13.01 525.86-13.55L525.86-13.55Q525.86-7.93 527.27-5.71L527.27-5.71Q529.01-3 534.18-3 539.36-3 544.1-5.03L544.1-5.03ZM525.86-16.41L541.46-16.41 541.46-18.75Q541.46-22.58 539.97-24.22L539.97-24.22Q538.31-26.05 534.23-26.05L534.23-26.05Q529.35-26.05 527.57-23.93L527.57-23.93Q525.86-21.9 525.86-16.41L525.86-16.41ZM609.22-25.51L609.22-25.51Q606.09-25.51 602.84-22.39L602.84-22.39 602.84 0 598.79 0 598.79-29.05 602.36-29.05 602.75-25.2Q603.89-26.98 605.22-27.98 606.55-28.98 607.41-29.2L607.41-29.2Q608.63-29.54 609.73-29.54 610.83-29.54 612.49-29.1L612.49-29.1 612.12-25.22Q610.88-25.51 609.22-25.51Z" opacity="1" transform="matrix(1,0,0,1,0,0)" fill="#323946" class="slogan-text-1" data-fill-palette-color="quaternary" id="text-1"></path></svg></g></svg></g></svg></g></svg></g><g transform="matrix(1,0,0,1,86.41064769379548,0)"><svg viewBox="0 0 40.337145839566155 77.13594495417144" height="77.13594495417144" width="40.337145839566155"><g><svg xmlns="http://www.w3.org/2000/svg" xmlns:xlink="http://www.w3.org/1999/xlink" version="1.1" x="0" y="0" viewBox="0.47099995613098145 0.45285606384277344 99.20099639892578 189.7001495361328" enable-background="new 0 0 100 190.153" xml:space="preserve" width="40.337145839566155" height="77.13594495417144" class="icon-icon-0" data-fill-palette-color="quaternary" id="icon-0"><g fill="#323946" data-fill-palette-color="quaternary"><polygon fill="#323946" points="86.282,190.153 16.625,190.153 9.417,87.497 93.484,87.497  " data-fill-palette-color="quaternary"></polygon><g fill="#323946" data-fill-palette-color="quaternary"><path fill="#323946" d="M99.672 80.529c0 1.391-1.275 2.529-2.835 2.529H3.305c-1.559 0-2.834-1.025-2.834-2.279s1.217-2.66 2.705-3.126l4.59-1.436c1.488-0.466 2.705-2.122 2.705-3.681v-2.018c0-1.559 1.275-2.834 2.834-2.834h73.532c1.56 0 2.835 1.275 2.835 2.834v2.018c0 1.559 1.233 3.159 2.741 3.555l4.518 1.188C98.438 77.676 99.672 79.139 99.672 80.529z" data-fill-palette-color="quaternary"></path></g></g><g fill="#323946" data-fill-palette-color="quaternary"><g fill="#323946" data-fill-palette-color="quaternary"><path fill="#323946" d="M22.271 1.46c-5.315 6.353-9.067 15.971-5.484 24.001 3.123 7 11.552 10.077 10.042 18.829-0.713 4.136-3.417 6.776-5.027 10.389-1.561 3.502 3.608 6.557 5.181 3.028 1.346-3.02 3.511-5.597 4.751-8.759 2.017-5.14 1.634-10.656-0.916-15.5-1.525-2.899-4.317-4.827-6.53-7.134-2.699-2.813-3.277-6.867-2.611-10.547 0.636-3.52 2.777-7.603 4.836-10.065C28.978 2.756 24.757-1.512 22.271 1.46L22.271 1.46z" data-fill-palette-color="quaternary"></path></g></g><g fill="#323946" data-fill-palette-color="quaternary"><g fill="#323946" data-fill-palette-color="quaternary"><path fill="#323946" d="M45.399 1.46c-5.314 6.353-9.066 15.971-5.484 24.001 3.122 7 11.55 10.077 10.041 18.829-0.713 4.136-3.417 6.776-5.026 10.389-1.56 3.502 3.609 6.557 5.181 3.028 1.346-3.02 3.51-5.598 4.75-8.759 2.016-5.14 1.634-10.656-0.915-15.5-1.525-2.899-4.316-4.827-6.529-7.134-2.699-2.813-3.276-6.867-2.611-10.547 0.636-3.52 2.777-7.603 4.836-10.065C52.105 2.756 47.884-1.512 45.399 1.46L45.399 1.46z" data-fill-palette-color="quaternary"></path></g></g><g fill="#323946" data-fill-palette-color="quaternary"><g fill="#323946" data-fill-palette-color="quaternary"><path fill="#323946" d="M68.31 1.46c-5.315 6.353-9.067 15.971-5.484 24.001 3.122 7 11.552 10.077 10.042 18.829-0.713 4.136-3.417 6.776-5.027 10.389-1.561 3.502 3.608 6.557 5.182 3.028 1.346-3.02 3.511-5.597 4.751-8.759 2.017-5.14 1.634-10.656-0.915-15.5-1.526-2.899-4.317-4.827-6.531-7.134-2.699-2.813-3.276-6.867-2.611-10.547 0.637-3.521 2.777-7.603 4.837-10.065C75.017 2.757 70.795-1.511 68.31 1.46L68.31 1.46z" data-fill-palette-color="quaternary"></path></g></g></svg></g></svg></g><g></g></svg></g></svg></g></svg></g></svg></g><defs></defs></svg><rect width="342.85155851775386" height="342.85155851775386" fill="none" stroke="none" visibility="hidden"></rect></g></svg></g></svg>